<mxfile host="app.diagrams.net" modified="2020-06-01T18:05:51.370Z" agent="5.0 (X11)" etag="bcCLdxrDP9IfPRUUuiVx" version="13.1.12" type="github">
  <diagram id="aHbsremMe60I0R5Ly1K9" name="Page-1">
    <mxGraphModel dx="824" dy="466" grid="1" gridSize="10" guides="1" tooltips="1" connect="1" arrows="1" fold="1" page="1" pageScale="1" pageWidth="1169" pageHeight="827" math="0" shadow="0">
      <root>
        <mxCell id="0" />
        <mxCell id="1" parent="0" />
      </root>
    </mxGraphModel>
  </diagram>
</mxfile>
